<?xml version="1.0" standalone="no"?>
<!DOCTYPE svg PUBLIC "-//W3C//DTD SVG 20010904//EN"
 "http://www.w3.org/TR/2001/REC-SVG-20010904/DTD/svg10.dtd">
<svg version="1.0" xmlns="http://www.w3.org/2000/svg"
 width="5834.000000pt" height="1987.000000pt" viewBox="0 0 5834.000000 1987.000000"
 preserveAspectRatio="xMidYMid meet">

<g transform="translate(0.000000,1987.000000) scale(0.100000,-0.100000)"
fill="#000000" stroke="none">
<path d="M7595 19021 c-71 -12 -133 -49 -174 -105 -21 -28 -1104 -1898 -2406
-4156 -1303 -2258 -2385 -4133 -2406 -4168 -22 -35 -46 -85 -54 -110 -9 -26
-281 -1170 -606 -2542 -324 -1372 -598 -2531 -609 -2575 -17 -67 -169 -712
-534 -2255 -36 -151 -72 -304 -82 -339 -27 -105 -2 -202 70 -274 55 -55 98
-73 272 -111 478 -104 925 -150 1469 -150 687 -1 1248 80 2020 294 415 115
587 166 1230 370 972 307 1399 413 1935 476 186 22 696 25 880 6 532 -57 1015
-185 1712 -451 285 -109 522 -210 1093 -466 806 -361 990 -438 1351 -565 863
-305 1657 -400 2494 -299 819 99 1499 322 2070 681 370 233 722 555 820 751
88 176 -22 384 -215 404 -115 12 -196 -30 -292 -154 -256 -328 -763 -661
-1310 -859 -513 -187 -1136 -294 -1703 -294 -542 0 -1013 82 -1600 279 -374
126 -662 245 -1500 624 -861 388 -1403 593 -1975 747 -839 225 -1595 244
-2480 64 -362 -74 -699 -169 -1460 -408 -1351 -427 -1800 -538 -2450 -607
-250 -27 -732 -36 -1007 -20 -198 12 -538 48 -548 58 -3 3 13 21 36 41 44 40
986 928 3619 3411 1582 1491 1714 1618 1757 1689 76 126 6089 10553 6116
10606 86 170 -9 366 -196 405 -59 12 -5264 14 -5337 2z m1121 -603 c-14 -24
-1051 -1823 -2305 -3998 l-2281 -3955 -457 -122 c-251 -67 -458 -121 -460
-120 -1 2 -18 37 -37 79 l-34 75 98 169 c68 119 4515 7833 4557 7907 2 4 216
7 474 7 l470 0 -25 -42z m2064 37 c0 -8 -5113 -8869 -5126 -8884 -9 -10 -803
-233 -810 -227 -1 0 -52 189 -113 419 l-112 419 38 67 c21 37 1095 1900 2388
4139 l2350 4072 692 0 c381 0 693 -2 693 -5z m1561 -77 c-27 -46 -1038 -1800
-2248 -3898 -1210 -2098 -2491 -4319 -2846 -4936 l-647 -1120 -79 -10 c-68 -8
-81 -7 -84 6 -2 8 -60 221 -127 473 l-124 458 20 38 c10 22 1191 2071 2624
4555 l2605 4515 477 1 477 0 -48 -82z m-8214 -8545 c142 -537 250 -928 268
-963 32 -63 66 -97 127 -125 97 -45 125 -41 676 107 369 98 495 129 501 119 4
-6 65 -229 136 -494 70 -265 134 -495 142 -510 8 -16 30 -46 49 -67 l35 -39
-613 -578 c-936 -884 -2411 -2275 -2440 -2301 l-26 -24 -42 62 c-55 81 -209
237 -285 287 -183 122 -393 198 -634 228 -53 7 -53 7 -48 39 7 38 957 4050
961 4053 1 1 24 -5 51 -13 32 -10 68 -13 100 -10 28 3 264 64 525 135 261 71
482 130 491 130 11 1 20 -12 26 -36z m-2100 -4872 c164 -32 267 -81 374 -179
65 -60 154 -196 147 -225 -2 -12 -1049 -1008 -1055 -1003 -1 1 151 644 288
1214 l51 212 49 0 c26 0 92 -9 146 -19z"/>
<path d="M19915 15986 c-163 -32 -226 -61 -269 -126 -47 -71 -56 -132 -56
-380 1 -401 31 -841 100 -1455 62 -546 71 -694 80 -1295 l8 -545 180 -2610
c161 -2332 179 -2622 171 -2720 -18 -210 10 -447 69 -593 91 -222 274 -374
527 -438 96 -24 130 -27 270 -28 140 0 166 2 211 20 151 61 207 168 253 480
16 111 17 150 9 260 -10 146 -4 387 18 609 85 893 371 1767 789 2411 107 165
179 255 281 356 117 115 178 159 301 220 101 49 103 50 197 50 128 0 181 -19
280 -96 98 -78 223 -287 289 -486 164 -493 208 -1334 127 -2405 -18 -236 -69
-763 -89 -925 -19 -153 47 -216 272 -257 73 -14 146 -17 355 -16 145 1 266 4
269 7 14 14 99 935 128 1376 90 1402 -12 2598 -282 3310 -228 600 -561 900
-1003 900 -442 0 -970 -351 -1506 -1000 -185 -225 -446 -598 -609 -872 -38
-65 -71 -116 -73 -113 -6 6 -69 544 -101 871 -63 641 -94 1174 -116 2009 -29
1115 -65 1813 -134 2640 -32 374 -44 437 -102 539 -72 130 -202 230 -364 283
-70 23 -100 26 -245 29 -110 2 -188 -1 -235 -10z"/>
<path d="M48860 15270 c-293 -36 -594 -148 -869 -325 -390 -250 -770 -661
-1072 -1161 -176 -292 -337 -683 -399 -969 -87 -403 -56 -863 79 -1160 101
-222 305 -419 529 -510 178 -72 443 -81 697 -23 204 46 399 156 607 342 128
114 220 213 443 481 197 235 329 373 445 465 l65 52 3 -194 c4 -247 -14 -982
-33 -1338 -18 -321 -27 -451 -100 -1330 -75 -901 -124 -1559 -135 -1785 -16
-359 -59 -795 -95 -970 -83 -397 -99 -570 -61 -670 58 -152 210 -292 383 -352
70 -24 92 -27 213 -27 211 1 322 36 420 136 57 57 148 188 155 221 11 54 67
696 90 1027 14 201 41 687 60 1080 36 723 84 1482 130 2040 25 301 90 1002
100 1070 3 19 30 265 60 545 86 806 114 1246 118 1815 l2 305 -28 54 c-37 73
-86 128 -160 179 -85 59 -239 145 -313 173 l-61 23 -28 110 c-65 260 -95 327
-185 416 -94 95 -360 214 -590 265 -89 20 -359 28 -470 15z m223 -780 c19 -16
44 -53 57 -82 33 -76 70 -233 70 -295 l0 -54 -413 -527 c-227 -290 -499 -637
-604 -772 -189 -241 -194 -248 -384 -412 -185 -161 -195 -168 -236 -168 l-43
0 0 43 c0 165 120 609 250 922 189 455 374 763 624 1039 179 196 344 299 525
325 102 15 118 13 154 -19z"/>
<path d="M35835 12625 c-92 -16 -140 -42 -198 -104 -90 -96 -122 -210 -137
-479 -7 -117 -7 -218 0 -297 70 -841 61 -3506 -16 -4565 -26 -363 -53 -599
-84 -740 -31 -138 105 -324 318 -433 163 -83 304 -117 485 -117 260 1 368 55
464 236 26 50 278 741 683 1874 353 987 656 1829 674 1872 48 111 124 237 174
285 106 104 212 48 316 -169 96 -201 174 -481 311 -1118 184 -858 315 -1388
474 -1910 76 -253 194 -515 289 -644 20 -27 53 -76 74 -108 102 -158 256 -266
503 -351 134 -46 219 -61 350 -62 95 0 117 3 162 24 132 59 208 216 219 451
l6 115 -321 789 -321 790 -406 1695 c-285 1194 -417 1727 -446 1805 -193 528
-430 853 -721 992 -104 49 -200 67 -317 60 -242 -14 -440 -125 -599 -335 -156
-206 -196 -286 -400 -791 -87 -217 -208 -512 -268 -655 -61 -143 -141 -339
-178 -435 -38 -96 -94 -239 -125 -318 l-56 -143 -23 96 c-12 53 -26 145 -32
203 -17 167 -2 680 31 1107 35 456 45 708 31 795 -6 39 -27 100 -52 150 -36
72 -58 101 -148 190 -215 213 -451 294 -716 245z"/>
<path d="M55108 12525 c-139 -23 -203 -53 -238 -109 -11 -19 -47 -110 -79
-202 -64 -184 -345 -960 -492 -1359 -102 -279 -222 -617 -337 -953 l-77 -224
-59 6 c-67 7 -136 41 -203 100 -25 22 -124 132 -221 245 -381 445 -524 596
-716 753 -166 136 -277 206 -404 254 -356 134 -742 41 -870 -211 -22 -45 -42
-137 -42 -199 0 -39 6 -47 116 -156 64 -63 254 -266 422 -450 460 -504 954
-991 1202 -1186 95 -74 195 -144 276 -193 l72 -42 6 -82 c6 -66 3 -97 -14
-162 -52 -200 -227 -660 -490 -1290 -51 -121 -171 -416 -267 -655 -650 -1615
-693 -1733 -693 -1911 0 -111 26 -175 100 -248 99 -97 314 -192 476 -211 82
-9 133 2 246 53 217 97 423 339 599 704 134 280 201 482 414 1258 246 894 373
1200 597 1440 l72 77 70 -4 c122 -6 236 -72 541 -314 736 -582 1146 -879 1330
-965 158 -74 197 -83 340 -84 140 0 212 14 315 61 122 56 213 152 238 254 25
104 25 130 -9 222 l-31 87 -1215 947 c-668 521 -1212 952 -1210 958 2 6 237
736 522 1621 l517 1610 -4 95 c-3 65 -12 113 -27 152 -55 141 -211 264 -399
313 -73 18 -263 19 -374 0z"/>
<path d="M44828 11941 c-148 -31 -295 -158 -333 -286 -22 -70 -19 -594 5
-1270 26 -728 40 -1488 40 -2265 l0 -635 -108 110 c-65 67 -150 171 -218 265
-61 85 -229 319 -374 520 -145 201 -356 493 -468 650 -264 369 -286 396 -471
580 -167 166 -285 254 -450 338 -313 157 -707 163 -869 13 -98 -91 -98 -260 0
-456 52 -103 183 -268 313 -395 37 -36 189 -227 338 -425 539 -716 906 -1192
1246 -1615 436 -543 656 -800 909 -1064 l152 -159 0 -216 c0 -119 -7 -317 -15
-441 -43 -638 -46 -2425 -5 -2955 9 -111 17 -157 41 -224 16 -47 50 -163 74
-260 25 -97 60 -206 78 -245 94 -197 248 -298 491 -325 383 -43 651 57 712
265 13 47 14 75 5 202 -6 81 -15 404 -21 717 -6 314 -15 863 -22 1220 -6 358
-12 1339 -13 2180 -1 898 -6 1728 -13 2010 -20 771 -60 1917 -92 2650 -16 374
-30 748 -30 830 0 83 -5 170 -11 195 -36 158 -198 346 -357 417 -130 58 -422
98 -534 74z"/>
<path d="M26325 11660 c-109 -13 -207 -50 -281 -106 -41 -30 -99 -118 -113
-170 -6 -22 -135 -819 -287 -1770 l-276 -1729 6 -185 c19 -660 260 -1237 651
-1558 236 -194 433 -288 705 -338 135 -25 394 -30 525 -10 360 56 664 196
1025 475 698 538 1275 1423 1394 2136 32 195 29 443 -10 700 -119 783 -365
1322 -789 1723 -278 263 -552 373 -930 374 -162 1 -238 -11 -359 -57 -90 -34
-193 -55 -269 -55 l-62 0 -34 58 c-109 183 -293 374 -426 440 -64 32 -184 61
-291 72 -54 5 -103 9 -109 8 -5 0 -37 -4 -70 -8z m1605 -1431 c210 -48 425
-275 536 -566 68 -181 95 -296 115 -503 12 -128 10 -174 -16 -460 -15 -167
-19 -188 -50 -295 -42 -145 -205 -428 -344 -595 -202 -243 -508 -544 -836
-819 -93 -78 -141 -96 -255 -95 -92 0 -136 21 -210 96 -99 100 -147 230 -210
566 -35 185 -40 230 -40 354 0 323 59 818 130 1091 64 249 144 438 272 643
129 208 272 375 398 465 59 43 175 96 247 113 69 17 200 20 263 5z"/>
<path d="M31350 11660 c-120 -15 -243 -70 -307 -139 -41 -43 -60 -78 -78 -140
-27 -89 -565 -3524 -565 -3601 0 -41 5 -127 11 -190 67 -744 329 -1248 819
-1577 376 -252 915 -305 1400 -136 234 81 572 287 809 492 128 110 287 263
360 344 489 545 834 1196 917 1732 48 317 -29 918 -174 1345 -139 407 -288
670 -534 937 -284 309 -546 443 -926 474 -172 13 -286 0 -447 -51 -147 -47
-209 -60 -284 -60 l-59 0 -33 53 c-132 208 -290 372 -424 439 -128 64 -329 96
-485 78z m1670 -1447 c247 -103 426 -339 528 -694 67 -230 83 -415 63 -691
-31 -406 -78 -545 -293 -867 -153 -228 -485 -571 -901 -929 -96 -83 -138 -112
-170 -121 -157 -39 -239 -21 -334 74 -109 109 -154 226 -223 585 l-42 215 6
185 c10 318 49 665 102 910 71 332 161 556 323 802 197 300 351 447 539 515
100 37 137 42 252 38 73 -2 119 -9 150 -22z"/>
</g>
</svg>
